# xmcd CD database file
#
# Track frame offsets:
#	150
#	4734
#	23108
#	41625
#	59846
#	75474
#	92413
#	115914
#	144669
#	176881
#	194498
#	218206
#	235867
#
# Disc length: 3404 seconds
#
# Revision: 0
# Processed by: cddbd v1.5.2PL0 Copyright (c) Steve Scherf et al.
# Submitted via: CDex 1.70beta2
#
DISCID=b30d4a0d
DTITLE=Monokel - Monokel Kraftblues
DYEAR=2012
DGENRE=Blues
TTITLE0=Intro 35
TTITLE1=Berlin
TTITLE2=Immer noch da
TTITLE3=Lass mich gehen
TTITLE4=Komm zu mir
TTITLE5=Wahrheiten
TTITLE6=An Dich allein
TTITLE7=Kindertraum
TTITLE8=Schwarze Marie
TTITLE9=Wie die Groﬂen
TTITLE10=Love me like a man
TTITLE11=Pride and Joy
TTITLE12=Wounded Heart
EXTD=YEAR: 2012
EXTT0=
EXTT1=
EXTT2=
EXTT3=
EXTT4=
EXTT5=
EXTT6=
EXTT7=
EXTT8=
EXTT9=
EXTT10=
EXTT11=
EXTT12=
PLAYORDER=
